# xmcd
#
# Track frame offsets:
#  150
#  13110
#  25360
#  39905
#  54840
#  69867
#  86362
#  109745
#  122592
#  139902
#  154065
#  174512
#  190125
#  207675
#
# Disc length: 2955 seconds
#
# Revision: 1
# Processed by: cddbd v1.5.1PL2 Copyright (c) Steve Scherf et al.
# Submitted via: Collectorz.com_Music_Collector 6.11
#
DISCID=b50b890e
DTITLE=Hip Linkchain - Airbusters
DYEAR=1993
DGENRE=Blues
TTITLE0=House Cat Blues
TTITLE1=I Had A Dream
TTITLE2=Muddy Waters - Blow Wind Blow
TTITLE3=Bed Bug Blues
TTITLE4=On My Way
TTITLE5=Keep On Searching
TTITLE6=B.B. King - Johnny Pate - Gambler's Blues
TTITLE7=I'll Overcome
TTITLE8=Allen Orange - Strain On My Heart
TTITLE9=Take Out Your False Teeth
TTITLE10=Bad News
TTITLE11=Airbusters
TTITLE12=Fugitive
TTITLE13=Robert Brown - Diggin' My Potatoes
EXTD=
EXTT0=
EXTT1=
EXTT2=
EXTT3=
EXTT4=
EXTT5=
EXTT6=
EXTT7=
EXTT8=
EXTT9=
EXTT10=
EXTT11=
EXTT12=
EXTT13=
PLAYORDER=
